<svg xmlns="http://www.w3.org/2000/svg" viewBox="0 0 32 32" width="32" height="32">
  <circle cx="16" cy="16" r="15" fill="#1e1b4b"/>
  <!-- Concentric Rings -->
  <circle cx="16" cy="16" r="12" fill="none" stroke="white" stroke-width="0.2" opacity="0.1"/>
  <circle cx="16" cy="16" r="9" fill="none" stroke="white" stroke-width="0.2" opacity="0.15"/>
  <circle cx="16" cy="16" r="6" fill="none" stroke="white" stroke-width="0.2" opacity="0.2"/>
  
  <!-- Radial Lines -->
  <line x1="16" y1="16" x2="16" y2="4" stroke="white" stroke-width="0.3" opacity="0.2"/>
  <line x1="16" y1="16" x2="16" y2="28" stroke="white" stroke-width="0.3" opacity="0.2"/>
  <line x1="16" y1="16" x2="4" y2="16" stroke="white" stroke-width="0.3" opacity="0.2"/>
  <line x1="16" y1="16" x2="28" y2="16" stroke="white" stroke-width="0.3" opacity="0.2"/>
  <line x1="16" y1="16" x2="7.5" y2="7.5" stroke="white" stroke-width="0.3" opacity="0.2"/>
  <line x1="16" y1="16" x2="24.5" y2="7.5" stroke="white" stroke-width="0.3" opacity="0.2"/>
  <line x1="16" y1="16" x2="7.5" y2="24.5" stroke="white" stroke-width="0.3" opacity="0.2"/>
  <line x1="16" y1="16" x2="24.5" y2="24.5" stroke="white" stroke-width="0.3" opacity="0.2"/>

  <!-- Nodes -->
  <circle cx="16" cy="4" r="1.5" fill="#a5b4fc"/>
  <circle cx="16" cy="28" r="1.5" fill="#a5b4fc"/>
  <circle cx="4" cy="16" r="1.5" fill="#a5b4fc"/>
  <circle cx="28" cy="16" r="1.5" fill="#a5b4fc"/>
  <circle cx="7.5" cy="7.5" r="1.5" fill="#a5b4fc"/>
  <circle cx="24.5" cy="7.5" r="1.5" fill="#a5b4fc"/>
  <circle cx="7.5" cy="24.5" r="1.5" fill="#a5b4fc"/>
  <circle cx="24.5" cy="24.5" r="1.5" fill="#a5b4fc"/>

  <!-- Core -->
  <circle cx="16" cy="16" r="5" fill="#4f46e5"/>
  <circle cx="16" cy="16" r="2" fill="#e0e7ff"/>
</svg>