<svg xmlns="http://www.w3.org/2000/svg" viewBox="0 0 512 512" width="512" height="512">
  <rect width="512" height="512" fill="#1e1b4b" rx="64"/>
  
  <circle cx="256" cy="256" r="210" fill="none" stroke="#e0e7ff" stroke-width="2" opacity="0.1" />
  <circle cx="256" cy="256" r="150" fill="none" stroke="#e0e7ff" stroke-width="2" opacity="0.2" />
  <circle cx="256" cy="256" r="95" fill="none" stroke="#e0e7ff" stroke-width="2" opacity="0.3" />

  <line x1="120" y1="120" x2="392" y2="392" stroke="#a5b4fc" stroke-width="4" opacity="0.2" />
  <line x1="392" y1="120" x2="120" y2="392" stroke="#a5b4fc" stroke-width="4" opacity="0.2" />
  <line x1="256" y1="60" x2="256" y2="452" stroke="#a5b4fc" stroke-width="4" opacity="0.2" />
  <line x1="60" y1="256" x2="452" y2="256" stroke="#a5b4fc" stroke-width="4" opacity="0.2" />

  <circle cx="256" cy="60" r="22" fill="#a5b4fc" />
  <circle cx="256" cy="452" r="22" fill="#a5b4fc" />
  <circle cx="60" cy="256" r="22" fill="#a5b4fc" />
  <circle cx="452" cy="256" r="22" fill="#a5b4fc" />
  <circle cx="120" cy="120" r="22" fill="#a5b4fc" />
  <circle cx="392" cy="120" r="22" fill="#a5b4fc" />
  <circle cx="120" cy="392" r="22" fill="#a5b4fc" />
  <circle cx="392" cy="392" r="22" fill="#a5b4fc" />

  <circle cx="256" cy="256" r="75" fill="#4f46e5" />
  <circle cx="256" cy="256" r="28" fill="#ffffff" />
</svg>
